<?xml version="1.0" standalone="no"?>
<!DOCTYPE svg PUBLIC "-//W3C//DTD SVG 1.1//EN"
  "http://www.w3.org/Graphics/SVG/1.1/DTD/svg11.dtd">
<svg>
  <rect x="0" y="0" width="350" height="40" fill="lavender" /> 
  <line x1="10" y1="10" x2="10" y2="30" stroke="black" /> 
  <line x1="10" y1="20" x2="20" y2="20" stroke="black" /> 
  <line x1="20" y1="10" x2="20" y2="30" stroke="black" /> 
  <line x1="25" y1="10" x2="25" y2="30" stroke="black" /> 
  <line x1="25" y1="10" x2="35" y2="10" stroke="black" /> 
  <line x1="25" y1="20" x2="35" y2="20" stroke="black" /> 
  <line x1="25" y1="30" x2="35" y2="30" stroke="black" /> 
  <line x1="40" y1="10" x2="40" y2="30" stroke="black" /> 
  <line x1="40" y1="30" x2="50" y2="30" stroke="black" /> 
  <line x1="55" y1="10" x2="55" y2="30" stroke="black" /> 
  <line x1="55" y1="30" x2="65" y2="30" stroke="black" /> 
  <line x1="70" y1="10" x2="70" y2="30" stroke="black" /> 
  <line x1="70" y1="30" x2="80" y2="30" stroke="black" /> 
  <line x1="80" y1="30" x2="80" y2="10" stroke="black" /> 
  <line x1="80" y1="10" x2="70" y2="10" stroke="black" /> 
  <line x1="95" y1="10" x2="100" y2="30" stroke="black" /> 
  <line x1="100" y1="30" x2="105" y2="20" stroke="black" /> 
  <line x1="105" y1="20" x2="110" y2="30" stroke="black" /> 
  <line x1="110" y1="30" x2="115" y2="10" stroke="black" /> 
  <line x1="120" y1="10" x2="120" y2="30" stroke="black" /> 
  <line x1="120" y1="30" x2="130" y2="30" stroke="black" /> 
  <line x1="130" y1="30" x2="130" y2="10" stroke="black" /> 
  <line x1="130" y1="10" x2="120" y2="10" stroke="black" /> 
  <line x1="135" y1="10" x2="135" y2="30" stroke="black" /> 
  <line x1="135" y1="10" x2="145" y2="10" stroke="black" /> 
  <line x1="145" y1="10" x2="145" y2="20" stroke="black" /> 
  <line x1="145" y1="20" x2="135" y2="20" stroke="black" /> 
  <line x1="135" y1="20" x2="145" y2="30" stroke="black" /> 
  <line x1="150" y1="10" x2="150" y2="30" stroke="black" /> 
  <line x1="150" y1="30" x2="160" y2="30" stroke="black" /> 
  <line x1="165" y1="10" x2="165" y2="30" stroke="black" /> 
  <line x1="165" y1="10" x2="175" y2="20" stroke="black" /> 
  <line x1="175" y1="20" x2="165" y2="30" stroke="black" /> 
  <rect x="180" y="10" width="3" height="15" fill="black" /> 
  <circle cx="181.5" cy="28.5" r="2" fill="black" /> 
</svg>